
<group>
lokey=24
hikey=24
amp_velcurve_63=0.350
amplitude_cc86=70
locc86=1
locc121=64
locc81=1
amplitude_cc81=100

<region>
sample=../Samples/db1_single_cycle.flac
trigger=first
group=6
off_by=6
offset_random=4546
pitch_keycenter=37
tune_oncc92=13
pan_oncc82=100

<region>
sample=../Samples/db1_single_cycle.flac
trigger=legato
group=6
off_by=6
offset_random=4546
pitch_keycenter=37
eg06_time1_oncc120=0.5
tune_oncc92=13
pan_oncc82=100

<region>
sample=../Samples/d1_single_cycle.flac
trigger=first
group=5
off_by=5
offset_random=1345
pitch_keycenter=38
tune_oncc92=-13
pan_oncc82=-100

<region>
sample=../Samples/d1_single_cycle.flac
trigger=legato
group=5
off_by=5
offset_random=1345
pitch_keycenter=38
eg06_time1_oncc120=0.5
tune_oncc92=-13
pan_oncc82=-100

//========================
<group>
lokey=25
hikey=25
amp_velcurve_63=0.350
amplitude_cc86=70
locc86=1
locc121=64
locc81=1
amplitude_cc81=100

<region>
sample=../Samples/d1_single_cycle.flac
trigger=first
group=6
off_by=6
offset_random=1345
pitch_keycenter=38
tune_oncc92=13
pan_oncc82=100

<region>
sample=../Samples/d1_single_cycle.flac
trigger=legato
group=6
off_by=6
offset_random=1345
pitch_keycenter=38
eg06_time1_oncc120=0.5
tune_oncc92=13
pan_oncc82=100

<region>
sample=../Samples/eb1_single_cycle.flac
trigger=first
group=5
off_by=5
offset_random=8535
pitch_keycenter=39
tune_oncc92=-13
pan_oncc82=-100

<region>
sample=../Samples/eb1_single_cycle.flac
trigger=legato
group=5
off_by=5
offset_random=8535
pitch_keycenter=39
eg06_time1_oncc120=0.5
tune_oncc92=-13
pan_oncc82=-100

//========================
<group>
lokey=26
hikey=26
amp_velcurve_63=0.350
amplitude_cc86=70
locc86=1
locc121=64
locc81=1
amplitude_cc81=100

<region>
sample=../Samples/eb1_single_cycle.flac
trigger=first
group=6
off_by=6
offset_random=8535
pitch_keycenter=39
tune_oncc92=13
pan_oncc82=100

<region>
sample=../Samples/eb1_single_cycle.flac
trigger=legato
group=6
off_by=6
offset_random=8535
pitch_keycenter=39
eg06_time1_oncc120=0.5
tune_oncc92=13
pan_oncc82=100

<region>
sample=../Samples/e1_single_cycle.flac
trigger=first
group=5
off_by=5
offset_random=5463
pitch_keycenter=40
tune_oncc92=-13
pan_oncc82=-100

<region>
sample=../Samples/e1_single_cycle.flac
trigger=legato
group=5
off_by=5
offset_random=5463
pitch_keycenter=40
eg06_time1_oncc120=0.5
tune_oncc92=-13
pan_oncc82=-100

//========================
<group>
lokey=27
hikey=27
amp_velcurve_63=0.350
amplitude_cc86=70
locc86=1
locc121=64
locc81=1
amplitude_cc81=100

<region>
sample=../Samples/db1_single_cycle.flac
trigger=first
group=6
off_by=6
offset_random=4546
pitch_keycenter=37
tune_oncc92=13
pan_oncc82=100

<region>
sample=../Samples/db1_single_cycle.flac
trigger=legato
group=6
off_by=6
offset_random=4546
pitch_keycenter=37
eg06_time1_oncc120=0.5
tune_oncc92=13
pan_oncc82=100

<region>
sample=../Samples/d1_single_cycle.flac
trigger=first
group=5
off_by=5
offset_random=1345
pitch_keycenter=38
tune_oncc92=-13
pan_oncc82=-100

<region>
sample=../Samples/d1_single_cycle.flac
trigger=legato
group=5
off_by=5
offset_random=1345
pitch_keycenter=38
eg06_time1_oncc120=0.5
tune_oncc92=-13
pan_oncc82=-100

//========================
<group>
lokey=28
hikey=28
amp_velcurve_63=0.350
amplitude_cc86=70
locc86=1
locc121=64
locc81=1
amplitude_cc81=100

<region>
sample=../Samples/d1_single_cycle.flac
trigger=first
group=6
off_by=6
offset_random=1345
pitch_keycenter=38
tune_oncc92=13
pan_oncc82=100

<region>
sample=../Samples/d1_single_cycle.flac
trigger=legato
group=6
off_by=6
offset_random=1345
pitch_keycenter=38
eg06_time1_oncc120=0.5
tune_oncc92=13
pan_oncc82=100

<region>
sample=../Samples/eb1_single_cycle.flac
trigger=first
group=5
off_by=5
offset_random=8535
pitch_keycenter=39
tune_oncc92=-13
pan_oncc82=-100

<region>
sample=../Samples/eb1_single_cycle.flac
trigger=legato
group=5
off_by=5
offset_random=8535
pitch_keycenter=39
eg06_time1_oncc120=0.5
tune_oncc92=-13
pan_oncc82=-100

//========================
<group>
lokey=29
hikey=29
amp_velcurve_63=0.350
amplitude_cc86=70
locc86=1
locc121=64
locc81=1
amplitude_cc81=100

<region>
sample=../Samples/eb1_single_cycle.flac
trigger=first
group=6
off_by=6
offset_random=8535
pitch_keycenter=39
tune_oncc92=13
pan_oncc82=100

<region>
sample=../Samples/eb1_single_cycle.flac
trigger=legato
group=6
off_by=6
offset_random=8535
pitch_keycenter=39
eg06_time1_oncc120=0.5
tune_oncc92=13
pan_oncc82=100

<region>
sample=../Samples/e1_single_cycle.flac
trigger=first
group=5
off_by=5
offset_random=5463
pitch_keycenter=40
tune_oncc92=-13
pan_oncc82=-100

<region>
sample=../Samples/e1_single_cycle.flac
trigger=legato
group=5
off_by=5
offset_random=5463
pitch_keycenter=40
eg06_time1_oncc120=0.5
tune_oncc92=-13
pan_oncc82=-100

//========================
<group>
lokey=30
hikey=30
amp_velcurve_63=0.350
amplitude_cc86=70
locc86=1
locc121=64
locc81=1
amplitude_cc81=100

<region>
sample=../Samples/db1_single_cycle.flac
trigger=first
group=6
off_by=6
offset_random=4546
pitch_keycenter=37
tune_oncc92=13
pan_oncc82=100

<region>
sample=../Samples/db1_single_cycle.flac
trigger=legato
group=6
off_by=6
offset_random=4546
pitch_keycenter=37
eg06_time1_oncc120=0.5
tune_oncc92=13
pan_oncc82=100

<region>
sample=../Samples/d1_single_cycle.flac
trigger=first
group=5
off_by=5
offset_random=1345
pitch_keycenter=38
tune_oncc92=-13
pan_oncc82=-100

<region>
sample=../Samples/d1_single_cycle.flac
trigger=legato
group=5
off_by=5
offset_random=1345
pitch_keycenter=38
eg06_time1_oncc120=0.5
tune_oncc92=-13
pan_oncc82=-100

//========================
<group>
lokey=31
hikey=31
amp_velcurve_63=0.350
amplitude_cc86=70
locc86=1
locc121=64
locc81=1
amplitude_cc81=100

<region>
sample=../Samples/d1_single_cycle.flac
trigger=first
group=6
off_by=6
offset_random=1345
pitch_keycenter=38
tune_oncc92=13
pan_oncc82=100

<region>
sample=../Samples/d1_single_cycle.flac
trigger=legato
group=6
off_by=6
offset_random=1345
pitch_keycenter=38
eg06_time1_oncc120=0.5
tune_oncc92=13
pan_oncc82=100

<region>
sample=../Samples/eb1_single_cycle.flac
trigger=first
group=5
off_by=5
offset_random=8535
pitch_keycenter=39
tune_oncc92=-13
pan_oncc82=-100

<region>
sample=../Samples/eb1_single_cycle.flac
trigger=legato
group=5
off_by=5
offset_random=8535
pitch_keycenter=39
eg06_time1_oncc120=0.5
tune_oncc92=-13
pan_oncc82=-100

//========================
<group>
lokey=32
hikey=32
amp_velcurve_63=0.350
amplitude_cc86=70
locc86=1
locc121=64
locc81=1
amplitude_cc81=100

<region>
sample=../Samples/eb1_single_cycle.flac
trigger=first
group=6
off_by=6
offset_random=8535
pitch_keycenter=39
tune_oncc92=13
pan_oncc82=100

<region>
sample=../Samples/eb1_single_cycle.flac
trigger=legato
group=6
off_by=6
offset_random=8535
pitch_keycenter=39
eg06_time1_oncc120=0.5
tune_oncc92=13
pan_oncc82=100

<region>
sample=../Samples/e1_single_cycle.flac
trigger=first
group=5
off_by=5
offset_random=5463
pitch_keycenter=40
tune_oncc92=-13
pan_oncc82=-100

<region>
sample=../Samples/e1_single_cycle.flac
trigger=legato
group=5
off_by=5
offset_random=5463
pitch_keycenter=40
eg06_time1_oncc120=0.5
tune_oncc92=-13
pan_oncc82=-100

//========================
<group>
lokey=33
hikey=33
amp_velcurve_63=0.350
amplitude_cc86=70
locc86=1
locc121=64
locc81=1
amplitude_cc81=100

<region>
sample=../Samples/db1_single_cycle.flac
trigger=first
group=6
off_by=6
offset_random=4546
pitch_keycenter=37
tune_oncc92=13
pan_oncc82=100

<region>
sample=../Samples/db1_single_cycle.flac
trigger=legato
group=6
off_by=6
offset_random=4546
pitch_keycenter=37
eg06_time1_oncc120=0.5
tune_oncc92=13
pan_oncc82=100

<region>
sample=../Samples/d1_single_cycle.flac
trigger=first
group=5
off_by=5
offset_random=1345
pitch_keycenter=38
tune_oncc92=-13
pan_oncc82=-100

<region>
sample=../Samples/d1_single_cycle.flac
trigger=legato
group=5
off_by=5
offset_random=1345
pitch_keycenter=38
eg06_time1_oncc120=0.5
tune_oncc92=-13
pan_oncc82=-100

//========================
<group>
lokey=34
hikey=34
amp_velcurve_63=0.350
amplitude_cc86=70
locc86=1
locc121=64
locc81=1
amplitude_cc81=100

<region>
sample=../Samples/d1_single_cycle.flac
trigger=first
group=6
off_by=6
offset_random=1345
pitch_keycenter=38
tune_oncc92=13
pan_oncc82=100

<region>
sample=../Samples/d1_single_cycle.flac
trigger=legato
group=6
off_by=6
offset_random=1345
pitch_keycenter=38
eg06_time1_oncc120=0.5
tune_oncc92=13
pan_oncc82=100

<region>
sample=../Samples/eb1_single_cycle.flac
trigger=first
group=5
off_by=5
offset_random=8535
pitch_keycenter=39
tune_oncc92=-13
pan_oncc82=-100

<region>
sample=../Samples/eb1_single_cycle.flac
trigger=legato
group=5
off_by=5
offset_random=8535
pitch_keycenter=39
eg06_time1_oncc120=0.5
tune_oncc92=-13
pan_oncc82=-100

//========================
<group>
lokey=35
hikey=35
amp_velcurve_63=0.350
amplitude_cc86=70
locc86=1
locc121=64
locc81=1
amplitude_cc81=100

<region>
sample=../Samples/eb1_single_cycle.flac
trigger=first
group=6
off_by=6
offset_random=8535
pitch_keycenter=39
tune_oncc92=13
pan_oncc82=100

<region>
sample=../Samples/eb1_single_cycle.flac
trigger=legato
group=6
off_by=6
offset_random=8535
pitch_keycenter=39
eg06_time1_oncc120=0.5
tune_oncc92=13
pan_oncc82=100

<region>
sample=../Samples/e1_single_cycle.flac
trigger=first
group=5
off_by=5
offset_random=5463
pitch_keycenter=40
tune_oncc92=-13
pan_oncc82=-100

<region>
sample=../Samples/e1_single_cycle.flac
trigger=legato
group=5
off_by=5
offset_random=5463
pitch_keycenter=40
eg06_time1_oncc120=0.5
tune_oncc92=-13
pan_oncc82=-100

//========================
<group>
lokey=36
hikey=36
amp_velcurve_63=0.350
amplitude_cc86=70
locc86=1
locc121=64
locc81=1
amplitude_cc81=100

<region>
sample=../Samples/db1_single_cycle.flac
trigger=first
group=6
off_by=6
offset_random=4546
pitch_keycenter=37
tune_oncc92=13
pan_oncc82=100

<region>
sample=../Samples/db1_single_cycle.flac
trigger=legato
group=6
off_by=6
offset_random=4546
pitch_keycenter=37
eg06_time1_oncc120=0.5
tune_oncc92=13
pan_oncc82=100

<region>
sample=../Samples/d1_single_cycle.flac
trigger=first
group=5
off_by=5
offset_random=1345
pitch_keycenter=38
tune_oncc92=-13
pan_oncc82=-100

<region>
sample=../Samples/d1_single_cycle.flac
trigger=legato
group=5
off_by=5
offset_random=1345
pitch_keycenter=38
eg06_time1_oncc120=0.5
tune_oncc92=-13
pan_oncc82=-100

//========================
<group>
lokey=37
hikey=37
amp_velcurve_63=0.350
amplitude_cc86=70
locc86=1
locc121=64
locc81=1
amplitude_cc81=100

<region>
sample=../Samples/d1_single_cycle.flac
trigger=first
group=6
off_by=6
offset_random=1345
pitch_keycenter=38
tune_oncc92=13
pan_oncc82=100

<region>
sample=../Samples/d1_single_cycle.flac
trigger=legato
group=6
off_by=6
offset_random=1345
pitch_keycenter=38
eg06_time1_oncc120=0.5
tune_oncc92=13
pan_oncc82=100

<region>
sample=../Samples/eb1_single_cycle.flac
trigger=first
group=5
off_by=5
offset_random=8535
pitch_keycenter=39
tune_oncc92=-13
pan_oncc82=-100

<region>
sample=../Samples/eb1_single_cycle.flac
trigger=legato
group=5
off_by=5
offset_random=8535
pitch_keycenter=39
eg06_time1_oncc120=0.5
tune_oncc92=-13
pan_oncc82=-100

//========================
<group>
lokey=38
hikey=38
amp_velcurve_63=0.350
amplitude_cc86=70
locc86=1
locc121=64
locc81=1
amplitude_cc81=100

<region>
sample=../Samples/eb1_single_cycle.flac
trigger=first
group=6
off_by=6
offset_random=8535
pitch_keycenter=39
tune_oncc92=13
pan_oncc82=100

<region>
sample=../Samples/eb1_single_cycle.flac
trigger=legato
group=6
off_by=6
offset_random=8535
pitch_keycenter=39
eg06_time1_oncc120=0.5
tune_oncc92=13
pan_oncc82=100

<region>
sample=../Samples/e1_single_cycle.flac
trigger=first
group=5
off_by=5
offset_random=5463
pitch_keycenter=40
tune_oncc92=-13
pan_oncc82=-100

<region>
sample=../Samples/e1_single_cycle.flac
trigger=legato
group=5
off_by=5
offset_random=5463
pitch_keycenter=40
eg06_time1_oncc120=0.5
tune_oncc92=-13
pan_oncc82=-100

//========================
<group>
lokey=39
hikey=39
amp_velcurve_63=0.350
amplitude_cc86=70
locc86=1
locc121=64
locc81=1
amplitude_cc81=100

<region>
sample=../Samples/e1_single_cycle.flac
trigger=first
group=6
off_by=6
offset_random=5463
pitch_keycenter=40
tune_oncc92=13
pan_oncc82=100

<region>
sample=../Samples/e1_single_cycle.flac
trigger=legato
group=6
off_by=6
offset_random=5463
pitch_keycenter=40
eg06_time1_oncc120=0.5
tune_oncc92=13
pan_oncc82=100

<region>
sample=../Samples/f1_single_cycle.flac
trigger=first
group=5
off_by=5
offset_random=7234
pitch_keycenter=41
tune_oncc92=-13
pan_oncc82=-100

<region>
sample=../Samples/f1_single_cycle.flac
trigger=legato
group=5
off_by=5
offset_random=7234
pitch_keycenter=41
eg06_time1_oncc120=0.5
tune_oncc92=-13
pan_oncc82=-100

//========================
<group>
lokey=40
hikey=40
amp_velcurve_63=0.350
amplitude_cc86=70
locc86=1
locc121=64
locc81=1
amplitude_cc81=100

<region>
sample=../Samples/f1_single_cycle.flac
trigger=first
group=6
off_by=6
offset_random=7234
pitch_keycenter=41
tune_oncc92=13
pan_oncc82=100

<region>
sample=../Samples/f1_single_cycle.flac
trigger=legato
group=6
off_by=6
offset_random=7234
pitch_keycenter=41
eg06_time1_oncc120=0.5
tune_oncc92=13
pan_oncc82=100

<region>
sample=../Samples/gb1_single_cycle.flac
trigger=first
group=5
off_by=5
offset_random=4236
pitch_keycenter=42
tune_oncc92=-13
pan_oncc82=-100

<region>
sample=../Samples/gb1_single_cycle.flac
trigger=legato
group=5
off_by=5
offset_random=4236
pitch_keycenter=42
eg06_time1_oncc120=0.5
tune_oncc92=-13
pan_oncc82=-100

//========================
<group>
lokey=41
hikey=41
amp_velcurve_63=0.350
amplitude_cc86=70
locc86=1
locc121=64
locc81=1
amplitude_cc81=100

<region>
sample=../Samples/gb1_single_cycle.flac
trigger=first
group=6
off_by=6
offset_random=4236
pitch_keycenter=42
tune_oncc92=13
pan_oncc82=100

<region>
sample=../Samples/gb1_single_cycle.flac
trigger=legato
group=6
off_by=6
offset_random=4236
pitch_keycenter=42
eg06_time1_oncc120=0.5
tune_oncc92=13
pan_oncc82=100

<region>
sample=../Samples/g1_single_cycle.flac
trigger=first
group=5
off_by=5
offset_random=5832
pitch_keycenter=43
tune_oncc92=-13
pan_oncc82=-100

<region>
sample=../Samples/g1_single_cycle.flac
trigger=legato
group=5
off_by=5
offset_random=5832
pitch_keycenter=43
eg06_time1_oncc120=0.5
tune_oncc92=-13
pan_oncc82=-100

//========================
<group>
lokey=42
hikey=42
amp_velcurve_63=0.350
amplitude_cc86=70
locc86=1
locc121=64
locc81=1
amplitude_cc81=100

<region>
sample=../Samples/g1_single_cycle.flac
trigger=first
group=6
off_by=6
offset_random=5832
pitch_keycenter=43
tune_oncc92=13
pan_oncc82=100

<region>
sample=../Samples/g1_single_cycle.flac
trigger=legato
group=6
off_by=6
offset_random=5832
pitch_keycenter=43
eg06_time1_oncc120=0.5
tune_oncc92=13
pan_oncc82=100

<region>
sample=../Samples/ab1_single_cycle.flac
trigger=first
group=5
off_by=5
offset_random=8234
pitch_keycenter=44
tune_oncc92=-13
pan_oncc82=-100

<region>
sample=../Samples/ab1_single_cycle.flac
trigger=legato
group=5
off_by=5
offset_random=8234
pitch_keycenter=44
eg06_time1_oncc120=0.5
tune_oncc92=-13
pan_oncc82=-100

//========================
<group>
lokey=43
hikey=43
amp_velcurve_63=0.350
amplitude_cc86=70
locc86=1
locc121=64
locc81=1
amplitude_cc81=100

<region>
sample=../Samples/ab1_single_cycle.flac
trigger=first
group=6
off_by=6
offset_random=8234
pitch_keycenter=44
tune_oncc92=13
pan_oncc82=100

<region>
sample=../Samples/ab1_single_cycle.flac
trigger=legato
group=6
off_by=6
offset_random=8234
pitch_keycenter=44
eg06_time1_oncc120=0.5
tune_oncc92=13
pan_oncc82=100

<region>
sample=../Samples/a1_single_cycle.flac
trigger=first
group=5
off_by=5
offset_random=6234
pitch_keycenter=45
tune_oncc92=-13
pan_oncc82=-100

<region>
sample=../Samples/a1_single_cycle.flac
trigger=legato
group=5
off_by=5
offset_random=6234
pitch_keycenter=45
eg06_time1_oncc120=0.5
tune_oncc92=-13
pan_oncc82=-100

//========================
<group>
lokey=44
hikey=44
amp_velcurve_63=0.350
amplitude_cc86=70
locc86=1
locc121=64
locc81=1
amplitude_cc81=100

<region>
sample=../Samples/a1_single_cycle.flac
trigger=first
group=6
off_by=6
offset_random=6234
pitch_keycenter=45
tune_oncc92=13
pan_oncc82=100

<region>
sample=../Samples/a1_single_cycle.flac
trigger=legato
group=6
off_by=6
offset_random=6234
pitch_keycenter=45
eg06_time1_oncc120=0.5
tune_oncc92=13
pan_oncc82=100

<region>
sample=../Samples/bb1_single_cycle.flac
trigger=first
group=5
off_by=5
offset_random=7283
pitch_keycenter=46
tune_oncc92=-13
pan_oncc82=-100

<region>
sample=../Samples/bb1_single_cycle.flac
trigger=legato
group=5
off_by=5
offset_random=7283
pitch_keycenter=46
eg06_time1_oncc120=0.5
tune_oncc92=-13
pan_oncc82=-100

//========================
<group>
lokey=45
hikey=45
amp_velcurve_63=0.350
amplitude_cc86=70
locc86=1
locc121=64
locc81=1
amplitude_cc81=100

<region>
sample=../Samples/bb1_single_cycle.flac
trigger=first
group=6
off_by=6
offset_random=7283
pitch_keycenter=46
tune_oncc92=13
pan_oncc82=100

<region>
sample=../Samples/bb1_single_cycle.flac
trigger=legato
group=6
off_by=6
offset_random=7283
pitch_keycenter=46
eg06_time1_oncc120=0.5
tune_oncc92=13
pan_oncc82=100

<region>
sample=../Samples/b1_single_cycle.flac
trigger=first
group=5
off_by=5
offset_random=9438
pitch_keycenter=47
tune_oncc92=-13
pan_oncc82=-100

<region>
sample=../Samples/b1_single_cycle.flac
trigger=legato
group=5
off_by=5
offset_random=9438
pitch_keycenter=47
eg06_time1_oncc120=0.5
tune_oncc92=-13
pan_oncc82=-100

//========================
<group>
lokey=46
hikey=46
amp_velcurve_63=0.350
amplitude_cc86=70
locc86=1
locc121=64
locc81=1
amplitude_cc81=100

<region>
sample=../Samples/b1_single_cycle.flac
trigger=first
group=6
off_by=6
offset_random=9438
pitch_keycenter=47
tune_oncc92=13
pan_oncc82=100

<region>
sample=../Samples/b1_single_cycle.flac
trigger=legato
group=6
off_by=6
offset_random=9438
pitch_keycenter=47
eg06_time1_oncc120=0.5
tune_oncc92=13
pan_oncc82=100

<region>
sample=../Samples/c2_single_cycle.flac
trigger=first
group=5
off_by=5
offset_random=5328
pitch_keycenter=48
tune_oncc92=-13
pan_oncc82=-100

<region>
sample=../Samples/c2_single_cycle.flac
trigger=legato
group=5
off_by=5
offset_random=5328
pitch_keycenter=48
eg06_time1_oncc120=0.5
tune_oncc92=-13
pan_oncc82=-100

//========================
<group>
lokey=47
hikey=47
amp_velcurve_63=0.350
amplitude_cc86=70
locc86=1
locc121=64
locc81=1
amplitude_cc81=100

<region>
sample=../Samples/c2_single_cycle.flac
trigger=first
group=6
off_by=6
offset_random=5328
pitch_keycenter=48
tune_oncc92=13
pan_oncc82=100

<region>
sample=../Samples/c2_single_cycle.flac
trigger=legato
group=6
off_by=6
offset_random=5328
pitch_keycenter=48
eg06_time1_oncc120=0.5
tune_oncc92=13
pan_oncc82=100

<region>
sample=../Samples/db2_single_cycle.flac
trigger=first
group=5
off_by=5
offset_random=9742
pitch_keycenter=49
tune_oncc92=-13
pan_oncc82=-100

<region>
sample=../Samples/db2_single_cycle.flac
trigger=legato
group=5
off_by=5
offset_random=9742
pitch_keycenter=49
eg06_time1_oncc120=0.5
tune_oncc92=-13
pan_oncc82=-100

//========================
<group>
lokey=48
hikey=48
amp_velcurve_63=0.350
amplitude_cc86=70
locc86=1
locc121=64
locc81=1
amplitude_cc81=100

<region>
sample=../Samples/db2_single_cycle.flac
trigger=first
group=6
off_by=6
offset_random=9742
pitch_keycenter=49
tune_oncc92=13
pan_oncc82=100

<region>
sample=../Samples/db2_single_cycle.flac
trigger=legato
group=6
off_by=6
offset_random=9742
pitch_keycenter=49
eg06_time1_oncc120=0.5
tune_oncc92=13
pan_oncc82=100

<region>
sample=../Samples/d2_single_cycle.flac
trigger=first
group=5
off_by=5
offset_random=1392
pitch_keycenter=50
tune_oncc92=-13
pan_oncc82=-100

<region>
sample=../Samples/d2_single_cycle.flac
trigger=legato
group=5
off_by=5
offset_random=1392
pitch_keycenter=50
eg06_time1_oncc120=0.5
tune_oncc92=-13
pan_oncc82=-100

//========================
<group>
lokey=49
hikey=49
amp_velcurve_63=0.350
amplitude_cc86=70
locc86=1
locc121=64
locc81=1
amplitude_cc81=100

<region>
sample=../Samples/d2_single_cycle.flac
trigger=first
group=6
off_by=6
offset_random=1392
pitch_keycenter=50
tune_oncc92=13
pan_oncc82=100

<region>
sample=../Samples/d2_single_cycle.flac
trigger=legato
group=6
off_by=6
offset_random=1392
pitch_keycenter=50
eg06_time1_oncc120=0.5
tune_oncc92=13
pan_oncc82=100

<region>
sample=../Samples/eb2_single_cycle.flac
trigger=first
group=5
off_by=5
offset_random=2754
pitch_keycenter=51
tune_oncc92=-13
pan_oncc82=-100

<region>
sample=../Samples/eb2_single_cycle.flac
trigger=legato
group=5
off_by=5
offset_random=2754
pitch_keycenter=51
eg06_time1_oncc120=0.5
tune_oncc92=-13
pan_oncc82=-100

//========================
<group>
lokey=50
hikey=50
amp_velcurve_63=0.350
amplitude_cc86=70
locc86=1
locc121=64
locc81=1
amplitude_cc81=100

<region>
sample=../Samples/eb2_single_cycle.flac
trigger=first
group=6
off_by=6
offset_random=2754
pitch_keycenter=51
tune_oncc92=13
pan_oncc82=100

<region>
sample=../Samples/eb2_single_cycle.flac
trigger=legato
group=6
off_by=6
offset_random=2754
pitch_keycenter=51
eg06_time1_oncc120=0.5
tune_oncc92=13
pan_oncc82=100

<region>
sample=../Samples/e2_single_cycle.flac
trigger=first
group=5
off_by=5
offset_random=8524
pitch_keycenter=52
tune_oncc92=-13
pan_oncc82=-100

<region>
sample=../Samples/e2_single_cycle.flac
trigger=legato
group=5
off_by=5
offset_random=8524
pitch_keycenter=52
eg06_time1_oncc120=0.5
tune_oncc92=-13
pan_oncc82=-100

//========================
<group>
lokey=51
hikey=51
amp_velcurve_63=0.350
amplitude_cc86=70
locc86=1
locc121=64
locc81=1
amplitude_cc81=100

<region>
sample=../Samples/e2_single_cycle.flac
trigger=first
group=6
off_by=6
offset_random=8524
pitch_keycenter=52
tune_oncc92=13
pan_oncc82=100

<region>
sample=../Samples/e2_single_cycle.flac
trigger=legato
group=6
off_by=6
offset_random=8524
pitch_keycenter=52
eg06_time1_oncc120=0.5
tune_oncc92=13
pan_oncc82=100

<region>
sample=../Samples/f2_single_cycle.flac
trigger=first
group=5
off_by=5
offset_random=3643
pitch_keycenter=53
tune_oncc92=-13
pan_oncc82=-100

<region>
sample=../Samples/f2_single_cycle.flac
trigger=legato
group=5
off_by=5
offset_random=3643
pitch_keycenter=53
eg06_time1_oncc120=0.5
tune_oncc92=-13
pan_oncc82=-100

//========================
<group>
lokey=52
hikey=52
amp_velcurve_63=0.350
amplitude_cc86=70
locc86=1
locc121=64
locc81=1
amplitude_cc81=100

<region>
sample=../Samples/f2_single_cycle.flac
trigger=first
group=6
off_by=6
offset_random=3643
pitch_keycenter=53
tune_oncc92=13
pan_oncc82=100

<region>
sample=../Samples/f2_single_cycle.flac
trigger=legato
group=6
off_by=6
offset_random=3643
pitch_keycenter=53
eg06_time1_oncc120=0.5
tune_oncc92=13
pan_oncc82=100

<region>
sample=../Samples/gb2_single_cycle.flac
trigger=first
group=5
off_by=5
offset_random=7234
pitch_keycenter=54
tune_oncc92=-13
pan_oncc82=-100

<region>
sample=../Samples/gb2_single_cycle.flac
trigger=legato
group=5
off_by=5
offset_random=7234
pitch_keycenter=54
eg06_time1_oncc120=0.5
tune_oncc92=-13
pan_oncc82=-100

//========================
<group>
lokey=53
hikey=53
amp_velcurve_63=0.350
amplitude_cc86=70
locc86=1
locc121=64
locc81=1
amplitude_cc81=100

<region>
sample=../Samples/gb2_single_cycle.flac
trigger=first
group=6
off_by=6
offset_random=7234
pitch_keycenter=54
tune_oncc92=13
pan_oncc82=100

<region>
sample=../Samples/gb2_single_cycle.flac
trigger=legato
group=6
off_by=6
offset_random=7234
pitch_keycenter=54
eg06_time1_oncc120=0.5
tune_oncc92=13
pan_oncc82=100

<region>
sample=../Samples/g2_single_cycle.flac
trigger=first
group=5
off_by=5
offset_random=9325
pitch_keycenter=55
tune_oncc92=-13
pan_oncc82=-100

<region>
sample=../Samples/g2_single_cycle.flac
trigger=legato
group=5
off_by=5
offset_random=9325
pitch_keycenter=55
eg06_time1_oncc120=0.5
tune_oncc92=-13
pan_oncc82=-100

//========================
<group>
lokey=54
hikey=54
amp_velcurve_63=0.350
amplitude_cc86=70
locc86=1
locc121=64
locc81=1
amplitude_cc81=100

<region>
sample=../Samples/g2_single_cycle.flac
trigger=first
group=6
off_by=6
offset_random=9325
pitch_keycenter=55
tune_oncc92=13
pan_oncc82=100

<region>
sample=../Samples/g2_single_cycle.flac
trigger=legato
group=6
off_by=6
offset_random=9325
pitch_keycenter=55
eg06_time1_oncc120=0.5
tune_oncc92=13
pan_oncc82=100

<region>
sample=../Samples/ab2_single_cycle.flac
trigger=first
group=5
off_by=5
offset_random=3468
pitch_keycenter=56
tune_oncc92=-13
pan_oncc82=-100

<region>
sample=../Samples/ab2_single_cycle.flac
trigger=legato
group=5
off_by=5
offset_random=3468
pitch_keycenter=56
eg06_time1_oncc120=0.5
tune_oncc92=-13
pan_oncc82=-100

//========================
<group>
lokey=55
hikey=55
amp_velcurve_63=0.350
amplitude_cc86=70
locc86=1
locc121=64
locc81=1
amplitude_cc81=100

<region>
sample=../Samples/ab2_single_cycle.flac
trigger=first
group=6
off_by=6
offset_random=3468
pitch_keycenter=56
tune_oncc92=13
pan_oncc82=100

<region>
sample=../Samples/ab2_single_cycle.flac
trigger=legato
group=6
off_by=6
offset_random=3468
pitch_keycenter=56
eg06_time1_oncc120=0.5
tune_oncc92=13
pan_oncc82=100

<region>
sample=../Samples/a2_single_cycle.flac
trigger=first
group=5
off_by=5
offset_random=7542
pitch_keycenter=57
tune_oncc92=-13
pan_oncc82=-100

<region>
sample=../Samples/a2_single_cycle.flac
trigger=legato
group=5
off_by=5
offset_random=7542
pitch_keycenter=57
eg06_time1_oncc120=0.5
tune_oncc92=-13
pan_oncc82=-100

//========================
<group>
lokey=56
hikey=56
amp_velcurve_63=0.350
amplitude_cc86=70
locc86=1
locc121=64
locc81=1
amplitude_cc81=100

<region>
sample=../Samples/a2_single_cycle.flac
trigger=first
group=6
off_by=6
offset_random=7542
pitch_keycenter=57
tune_oncc92=13
pan_oncc82=100

<region>
sample=../Samples/a2_single_cycle.flac
trigger=legato
group=6
off_by=6
offset_random=7542
pitch_keycenter=57
eg06_time1_oncc120=0.5
tune_oncc92=13
pan_oncc82=100

<region>
sample=../Samples/bb2_single_cycle.flac
trigger=first
group=5
off_by=5
offset_random=2834
pitch_keycenter=58
tune_oncc92=-13
pan_oncc82=-100

<region>
sample=../Samples/bb2_single_cycle.flac
trigger=legato
group=5
off_by=5
offset_random=2834
pitch_keycenter=58
eg06_time1_oncc120=0.5
tune_oncc92=-13
pan_oncc82=-100

//========================
<group>
lokey=57
hikey=57
amp_velcurve_63=0.350
amplitude_cc86=70
locc86=1
locc121=64
locc81=1
amplitude_cc81=100

<region>
sample=../Samples/bb2_single_cycle.flac
trigger=first
group=6
off_by=6
offset_random=2834
pitch_keycenter=58
tune_oncc92=13
pan_oncc82=100

<region>
sample=../Samples/bb2_single_cycle.flac
trigger=legato
group=6
off_by=6
offset_random=2834
pitch_keycenter=58
eg06_time1_oncc120=0.5
tune_oncc92=13
pan_oncc82=100

<region>
sample=../Samples/b2_single_cycle.flac
trigger=first
group=5
off_by=5
offset_random=5845
pitch_keycenter=59
tune_oncc92=-13
pan_oncc82=-100

<region>
sample=../Samples/b2_single_cycle.flac
trigger=legato
group=5
off_by=5
offset_random=5845
pitch_keycenter=59
eg06_time1_oncc120=0.5
tune_oncc92=-13
pan_oncc82=-100

//========================
<group>
lokey=58
hikey=58
amp_velcurve_63=0.350
amplitude_cc86=70
locc86=1
locc121=64
locc81=1
amplitude_cc81=100

<region>
sample=../Samples/b2_single_cycle.flac
trigger=first
group=6
off_by=6
offset_random=5845
pitch_keycenter=59
tune_oncc92=13
pan_oncc82=100

<region>
sample=../Samples/b2_single_cycle.flac
trigger=legato
group=6
off_by=6
offset_random=5845
pitch_keycenter=59
eg06_time1_oncc120=0.5
tune_oncc92=13
pan_oncc82=100

<region>
sample=../Samples/c3_single_cycle.flac
trigger=first
group=5
off_by=5
offset_random=7892
tune_oncc92=-13
pan_oncc82=-100

<region>
sample=../Samples/c3_single_cycle.flac
trigger=legato
group=5
off_by=5
offset_random=7892
eg06_time1_oncc120=0.5
tune_oncc92=-13
pan_oncc82=-100

//========================
<group>
lokey=59
hikey=59
amp_velcurve_63=0.350
amplitude_cc86=70
locc86=1
locc121=64
locc81=1
amplitude_cc81=100

<region>
sample=../Samples/c3_single_cycle.flac
trigger=first
group=6
off_by=6
offset_random=7892
tune_oncc92=13
pan_oncc82=100

<region>
sample=../Samples/c3_single_cycle.flac
trigger=legato
group=6
off_by=6
offset_random=7892
eg06_time1_oncc120=0.5
tune_oncc92=13
pan_oncc82=100

<region>
sample=../Samples/db3_single_cycle.flac
trigger=first
group=5
off_by=5
offset_random=5273
pitch_keycenter=61
tune_oncc92=-13
pan_oncc82=-100

<region>
sample=../Samples/db3_single_cycle.flac
trigger=legato
group=5
off_by=5
offset_random=5273
pitch_keycenter=61
eg06_time1_oncc120=0.5
tune_oncc92=-13
pan_oncc82=-100

//========================
<group>
lokey=60
hikey=60
amp_velcurve_63=0.350
amplitude_cc86=70
locc86=1
locc121=64
locc81=1
amplitude_cc81=100

<region>
sample=../Samples/db3_single_cycle.flac
trigger=first
group=6
off_by=6
offset_random=5273
pitch_keycenter=61
tune_oncc92=13
pan_oncc82=100

<region>
sample=../Samples/db3_single_cycle.flac
trigger=legato
group=6
off_by=6
offset_random=5273
pitch_keycenter=61
eg06_time1_oncc120=0.5
tune_oncc92=13
pan_oncc82=100

<region>
sample=../Samples/d3_single_cycle.flac
trigger=first
group=5
off_by=5
offset_random=2057
pitch_keycenter=62
tune_oncc92=-13
pan_oncc82=-100

<region>
sample=../Samples/d3_single_cycle.flac
trigger=legato
group=5
off_by=5
offset_random=2057
pitch_keycenter=62
eg06_time1_oncc120=0.5
tune_oncc92=-13
pan_oncc82=-100

//========================
<group>
lokey=61
hikey=61
amp_velcurve_63=0.350
amplitude_cc86=70
locc86=1
locc121=64
locc81=1
amplitude_cc81=100

<region>
sample=../Samples/d3_single_cycle.flac
trigger=first
group=6
off_by=6
offset_random=2057
pitch_keycenter=62
tune_oncc92=13
pan_oncc82=100

<region>
sample=../Samples/d3_single_cycle.flac
trigger=legato
group=6
off_by=6
offset_random=2057
pitch_keycenter=62
eg06_time1_oncc120=0.5
tune_oncc92=13
pan_oncc82=100

<region>
sample=../Samples/eb3_single_cycle.flac
trigger=first
group=5
off_by=5
offset_random=9248
pitch_keycenter=63
tune_oncc92=-13
pan_oncc82=-100

<region>
sample=../Samples/eb3_single_cycle.flac
trigger=legato
group=5
off_by=5
offset_random=9248
pitch_keycenter=63
eg06_time1_oncc120=0.5
tune_oncc92=-13
pan_oncc82=-100

//========================
<group>
lokey=62
hikey=62
amp_velcurve_63=0.350
amplitude_cc86=70
locc86=1
locc121=64
locc81=1
amplitude_cc81=100

<region>
sample=../Samples/eb3_single_cycle.flac
trigger=first
group=6
off_by=6
offset_random=9248
pitch_keycenter=63
tune_oncc92=13
pan_oncc82=100

<region>
sample=../Samples/eb3_single_cycle.flac
trigger=legato
group=6
off_by=6
offset_random=9248
pitch_keycenter=63
eg06_time1_oncc120=0.5
tune_oncc92=13
pan_oncc82=100

<region>
sample=../Samples/e3_single_cycle.flac
trigger=first
group=5
off_by=5
offset_random=7245
pitch_keycenter=64
tune_oncc92=-13
pan_oncc82=-100

<region>
sample=../Samples/e3_single_cycle.flac
trigger=legato
group=5
off_by=5
offset_random=7245
pitch_keycenter=64
eg06_time1_oncc120=0.5
tune_oncc92=-13
pan_oncc82=-100

//========================
<group>
lokey=63
hikey=63
amp_velcurve_63=0.350
amplitude_cc86=70
locc86=1
locc121=64
locc81=1
amplitude_cc81=100

<region>
sample=../Samples/e3_single_cycle.flac
trigger=first
group=6
off_by=6
offset_random=7245
pitch_keycenter=64
tune_oncc92=13
pan_oncc82=100

<region>
sample=../Samples/e3_single_cycle.flac
trigger=legato
group=6
off_by=6
offset_random=7245
pitch_keycenter=64
eg06_time1_oncc120=0.5
tune_oncc92=13
pan_oncc82=100

<region>
sample=../Samples/f3_single_cycle.flac
trigger=first
group=5
off_by=5
offset_random=6235
pitch_keycenter=65
tune_oncc92=-13
pan_oncc82=-100

<region>
sample=../Samples/f3_single_cycle.flac
trigger=legato
group=5
off_by=5
offset_random=6235
pitch_keycenter=65
eg06_time1_oncc120=0.5
tune_oncc92=-13
pan_oncc82=-100

//========================
<group>
lokey=64
hikey=64
amp_velcurve_63=0.350
amplitude_cc86=70
locc86=1
locc121=64
locc81=1
amplitude_cc81=100

<region>
sample=../Samples/f3_single_cycle.flac
trigger=first
group=6
off_by=6
offset_random=6235
pitch_keycenter=65
tune_oncc92=13
pan_oncc82=100

<region>
sample=../Samples/f3_single_cycle.flac
trigger=legato
group=6
off_by=6
offset_random=6235
pitch_keycenter=65
eg06_time1_oncc120=0.5
tune_oncc92=13
pan_oncc82=100

<region>
sample=../Samples/gb3_single_cycle.flac
trigger=first
group=5
off_by=5
offset_random=7422
pitch_keycenter=66
tune_oncc92=-13
pan_oncc82=-100

<region>
sample=../Samples/gb3_single_cycle.flac
trigger=legato
group=5
off_by=5
offset_random=7422
pitch_keycenter=66
eg06_time1_oncc120=0.5
tune_oncc92=-13
pan_oncc82=-100

//========================
<group>
lokey=65
hikey=65
amp_velcurve_63=0.350
amplitude_cc86=70
locc86=1
locc121=64
locc81=1
amplitude_cc81=100

<region>
sample=../Samples/gb3_single_cycle.flac
trigger=first
group=6
off_by=6
offset_random=7422
pitch_keycenter=66
tune_oncc92=13
pan_oncc82=100

<region>
sample=../Samples/gb3_single_cycle.flac
trigger=legato
group=6
off_by=6
offset_random=7422
pitch_keycenter=66
eg06_time1_oncc120=0.5
tune_oncc92=13
pan_oncc82=100

<region>
sample=../Samples/g3_single_cycle.flac
trigger=first
group=5
off_by=5
offset_random=8456
pitch_keycenter=67
tune_oncc92=-13
pan_oncc82=-100

<region>
sample=../Samples/g3_single_cycle.flac
trigger=legato
group=5
off_by=5
offset_random=8456
pitch_keycenter=67
eg06_time1_oncc120=0.5
tune_oncc92=-13
pan_oncc82=-100

//========================
<group>
lokey=66
hikey=66
amp_velcurve_63=0.350
amplitude_cc86=70
locc86=1
locc121=64
locc81=1
amplitude_cc81=100

<region>
sample=../Samples/g3_single_cycle.flac
trigger=first
group=6
off_by=6
offset_random=8456
pitch_keycenter=67
tune_oncc92=13
pan_oncc82=100

<region>
sample=../Samples/g3_single_cycle.flac
trigger=legato
group=6
off_by=6
offset_random=8456
pitch_keycenter=67
eg06_time1_oncc120=0.5
tune_oncc92=13
pan_oncc82=100

<region>
sample=../Samples/ab3_single_cycle.flac
trigger=first
group=5
off_by=5
offset_random=8674
pitch_keycenter=68
tune_oncc92=-13
pan_oncc82=-100

<region>
sample=../Samples/ab3_single_cycle.flac
trigger=legato
group=5
off_by=5
offset_random=8674
pitch_keycenter=68
eg06_time1_oncc120=0.5
tune_oncc92=-13
pan_oncc82=-100

//========================
<group>
lokey=67
hikey=67
amp_velcurve_63=0.350
amplitude_cc86=70
locc86=1
locc121=64
locc81=1
amplitude_cc81=100

<region>
sample=../Samples/gb3_single_cycle.flac
trigger=first
group=5
off_by=5
offset_random=4542
pitch_keycenter=66
tune_oncc92=-13
pan_oncc82=-100

<region>
sample=../Samples/gb3_single_cycle.flac
trigger=legato
group=5
off_by=5
offset_random=4542
pitch_keycenter=66
eg06_time1_oncc120=0.5
tune_oncc92=-13
pan_oncc82=-100

<region>
sample=../Samples/ab3_single_cycle.flac
trigger=first
group=6
off_by=6
offset_random=8674
pitch_keycenter=68
tune_oncc92=13
pan_oncc82=100

<region>
sample=../Samples/ab3_single_cycle.flac
trigger=legato
group=6
off_by=6
offset_random=8674
pitch_keycenter=68
eg06_time1_oncc120=0.5
tune_oncc92=13
pan_oncc82=100

//========================
<group>
lokey=68
hikey=68
amp_velcurve_63=0.350
amplitude_cc86=70
locc86=1
locc121=64
locc81=1
amplitude_cc81=100

<region>
sample=../Samples/gb3_single_cycle.flac
trigger=first
group=6
off_by=6
offset_random=4542
pitch_keycenter=66
tune_oncc92=13
pan_oncc82=100

<region>
sample=../Samples/gb3_single_cycle.flac
trigger=legato
group=6
off_by=6
offset_random=4542
pitch_keycenter=66
eg06_time1_oncc120=0.5
tune_oncc92=13
pan_oncc82=100

<region>
sample=../Samples/g3_single_cycle.flac
trigger=first
group=5
off_by=5
offset_random=3234
pitch_keycenter=67
tune_oncc92=-13
pan_oncc82=-100

<region>
sample=../Samples/g3_single_cycle.flac
trigger=legato
group=5
off_by=5
offset_random=3234
pitch_keycenter=67
eg06_time1_oncc120=0.5
tune_oncc92=-13
pan_oncc82=-100

//========================
<group>
lokey=69
hikey=69
amp_velcurve_63=0.350
amplitude_cc86=70
locc86=1
locc121=64
locc81=1
amplitude_cc81=100

<region>
sample=../Samples/g3_single_cycle.flac
trigger=first
group=6
off_by=6
offset_random=8456
pitch_keycenter=67
tune_oncc92=13
pan_oncc82=100

<region>
sample=../Samples/g3_single_cycle.flac
trigger=legato
group=6
off_by=6
offset_random=8456
pitch_keycenter=67
eg06_time1_oncc120=0.5
tune_oncc92=13
pan_oncc82=100

<region>
sample=../Samples/ab3_single_cycle.flac
trigger=first
group=5
off_by=5
offset_random=8674
pitch_keycenter=68
tune_oncc92=-13
pan_oncc82=-100

<region>
sample=../Samples/ab3_single_cycle.flac
trigger=legato
group=5
off_by=5
offset_random=8674
pitch_keycenter=68
eg06_time1_oncc120=0.5
tune_oncc92=-13
pan_oncc82=-100

//========================
<group>
lokey=70
hikey=70
amp_velcurve_63=0.350
amplitude_cc86=70
locc86=1
locc121=64
locc81=1
amplitude_cc81=100

<region>
sample=../Samples/gb3_single_cycle.flac
trigger=first
group=5
off_by=5
offset_random=4542
pitch_keycenter=66
tune_oncc92=-13
pan_oncc82=-100

<region>
sample=../Samples/gb3_single_cycle.flac
trigger=legato
group=5
off_by=5
offset_random=4542
pitch_keycenter=66
eg06_time1_oncc120=0.5
tune_oncc92=-13
pan_oncc82=-100

<region>
sample=../Samples/ab3_single_cycle.flac
trigger=first
group=6
off_by=6
offset_random=8674
pitch_keycenter=68
tune_oncc92=13
pan_oncc82=100

<region>
sample=../Samples/ab3_single_cycle.flac
trigger=legato
group=6
off_by=6
offset_random=8674
pitch_keycenter=68
eg06_time1_oncc120=0.5
tune_oncc92=13
pan_oncc82=100

//========================
<group>
lokey=71
hikey=71
amp_velcurve_63=0.350
amplitude_cc86=70
locc86=1
locc121=64
locc81=1
amplitude_cc81=100

<region>
sample=../Samples/gb3_single_cycle.flac
trigger=first
group=6
off_by=6
offset_random=4542
pitch_keycenter=66
tune_oncc92=13
pan_oncc82=100

<region>
sample=../Samples/gb3_single_cycle.flac
trigger=legato
group=6
off_by=6
offset_random=4542
pitch_keycenter=66
eg06_time1_oncc120=0.5
tune_oncc92=13
pan_oncc82=100

<region>
sample=../Samples/g3_single_cycle.flac
trigger=first
group=5
off_by=5
offset_random=3234
pitch_keycenter=67
tune_oncc92=-13
pan_oncc82=-100

<region>
sample=../Samples/g3_single_cycle.flac
trigger=legato
group=5
off_by=5
offset_random=3234
pitch_keycenter=67
eg06_time1_oncc120=0.5
tune_oncc92=-13
pan_oncc82=-100

//========================
<group>
lokey=72
hikey=72
amp_velcurve_63=0.350
amplitude_cc86=70
locc86=1
locc121=64
locc81=1
amplitude_cc81=100

<region>
sample=../Samples/g3_single_cycle.flac
trigger=first
group=6
off_by=6
offset_random=8456
pitch_keycenter=67
tune_oncc92=13
pan_oncc82=100

<region>
sample=../Samples/g3_single_cycle.flac
trigger=legato
group=6
off_by=6
offset_random=8456
pitch_keycenter=67
eg06_time1_oncc120=0.5
tune_oncc92=13
pan_oncc82=100

<region>
sample=../Samples/ab3_single_cycle.flac
trigger=first
group=5
off_by=5
offset_random=8674
pitch_keycenter=68
tune_oncc92=-13
pan_oncc82=-100

<region>
sample=../Samples/ab3_single_cycle.flac
trigger=legato
group=5
off_by=5
offset_random=8674
pitch_keycenter=68
eg06_time1_oncc120=0.5
tune_oncc92=-13
pan_oncc82=-100
